<svg xmlns="http://www.w3.org/2000/svg" xmlns:xlink="http://www.w3.org/1999/xlink" preserveAspectRatio="none" width="43" height="43"><defs><path fill="#54230D" d="M-24.35-4.05q5.25-5 12.05-7.55l3.75-1.2q-3.1 2.25-5.75 5.3-5.05 5.75-7.65 14.6-2.3 7.95-2.3 17.1 0 9.85 7.7 15.95-5.95-1.55-10.05-4.25-7.7-5.1-7.7-13.4 0-7.6 2.3-14.3 2.6-7.4 7.65-12.25z" id="m"/><path fill="#BF7926" d="m10.45-30.8-8.95-.6q-9.75-.15-14.2 1.6-7.45 2.95-14.35 9.35-8.55 7.85-5.4 12.8 2.85 4.3 8.8.3l5.45-4.15q3.6-2.7 6.3-3.7 5.6-2 13.9-3.6l7.2-1.3 1.25-10.7z" id="a"/><path fill="#70381F" d="M16.95-41.2q-1.3-2.55-3.15-4.4-1.05-1.05-2.5-1.05-1.4 0-2.45 1.05-1 1-1 2.45 0 1.45 1 2.45l1.9 2.6v.05q.8 1.55.2 2.5-.75.7-1.9 1.05H9l-3.7.7-5.1 1.15q-3.2 1.25-5.3 3.8l-.05.05q-4.65 4.95-.7 12.6l.05.05q1.05 1.9 2.6 3.75l.05.1L-2-10.95Q-1.05-9.9.35-9.8q1.45.1 2.55-.8 1.05-.95 1.15-2.4.1-1.45-.8-2.5L2.1-16.85l-1.8-2.6v-.05q-1.5-2.9-.2-4.8l.05-.05q1-1.2 2.55-1.8l3.6-.8 4.6-.85.05-.05q3.05-.9 4.95-2.85l.05-.05q4.25-4 1-10.45z" id="d"/><path fill="#70381F" d="M41.55 9.75q1.7 1.75 1.8 7.6.1 6-1.8 7.95-1.7 1.65-8.8 1l-6.75-1V9.75l6.9-.85q7.2-.55 8.65.85z" id="g"/><path fill="#70381F" d="m-32.75 26.3 6.75-1V9.75l-6.9-.85q-7.2-.55-8.65.85-1.7 1.75-1.8 7.6-.1 6 1.8 7.95 1.7 1.65 8.8 1z" id="h"/><path fill="#BF7926" d="m41.9 24.85-.35.45q-1.7 1.65-8.8 1l-6.75-1v-9.65l5.45-.6q7.2-.55 8.6.85 1.75 1.75 1.85 7.6v1.35z" id="i"/><path fill="#BF7926" d="M-31.45 15.05q-7.2-.55-8.6.85-1.75 1.75-1.85 7.6v1.35l.35.45q1.7 1.65 8.8 1l6.75-1v-9.65l-5.45-.6z" id="j"/><path fill="#70381F" d="M26.1-4.9q-5.25-5.25-12.05-7.95Q7.4-15.5-.2-15.5t-14.25 2.65q-6.8 2.7-12.05 7.95-5.05 5.05-7.65 12.85-2.3 7-2.3 15 0 8.7 7.7 14.05 9.4 6.6 28.55 6.6T28.35 37q7.7-5.35 7.7-14.05 0-8-2.3-15Q31.15.15 26.1-4.9z" id="k"/><path fill="#70381F" d="m10.85-30.8-8.9-.65q-9.75-.15-14.25 1.6-7.4 2.95-14.35 9.4l-1.35 1.3q5.15 2.6 10.3 7.55 3.55-2.65 6.2-3.6 5.6-2 13.95-3.6l7.2-1.35 1.2-10.65z" id="b"/><path fill="#A35D0D" d="M13.6 44.7q5.7-1.85 5.7-4.55l.1-1.05 1.1-.35q7.95-2.9 11.85-9.05-.2-.05-3.85-2.05-4.3-2-8-2.55-3.65-.5-10.45 1.85Q2.65 29.5-.2 29.5q-2.7 0-10.25-2.5-6.9-2.3-10.5-1.75-3.8.55-7.9 2.65-2.05 1.05-3.7 2.15 1.75 2.6 4.65 4.8 3.05 2.35 6.95 3.9l1.1.4.1 1q0 2.7 5.7 4.55Q-8.3 46.65-.2 46.65t13.8-1.95z" id="n"/><path d="M17.3 33.1q.9-.9 2.1-.9 1.25 0 2.1.9.9.85.9 2.1 0 1.2-.9 2.1-.85.85-2.1.85-1.2 0-2.1-.85-.85-.9-.85-2.1 0-1.25.85-2.1z" id="o"/><path d="M-22 33.1q.9-.9 2.1-.9 1.25 0 2.1.9.9.85.9 2.1 0 1.2-.9 2.1-.85.85-2.1.85-1.2 0-2.1-.85-.85-.9-.85-2.1 0-1.25.85-2.1z" id="p"/><path fill="#BF7926" d="M13.6 44.7q5.75-1.85 5.75-4.6l.05-.7v-.05l-.25-.2Q11.5 34.65-1.3 34.2q-10.6.5-18.35 4.85l-.25.15.15.9q0 2.75 5.7 4.6 5.75 1.95 13.8 1.95 8.15 0 13.85-1.95z" id="q"/><path id="c" stroke="#3C190A" stroke-width="3" stroke-linejoin="round" stroke-linecap="round" fill="none" d="M1.5-31.5q-9.75-.15-14.2 1.6-7.45 2.95-14.35 9.4l-1.35 1.3q-6.95 6.95-4.05 11.45 2.85 4.3 8.8.3l5.45-4.15.05-.1 1.65-1.1 1.55-1 3.1-1.45q5.55-2.05 13.9-3.65l7.15-1.3 1.25-10.7-8.95-.6z"/><path id="e" stroke="#3C190A" stroke-width="3" stroke-linejoin="round" stroke-linecap="round" fill="none" d="M13.8-45.6q-1.05-1.05-2.5-1.05-1.4 0-2.45 1.05-1 1-1 2.45 0 1.45 1 2.45l1.9 2.6v.05q.8 1.55.2 2.5-.75.7-1.9 1.05H9l-3.7.7-5.1 1.15q-3.2 1.25-5.3 3.8l-.05.05q-4.65 4.95-.7 12.6l.05.05q1.05 1.9 2.6 3.75l.05.1L-2-10.95Q-1.05-9.9.35-9.8q1.45.1 2.55-.8 1.05-.95 1.15-2.4.1-1.45-.8-2.5L2.1-16.85l-1.8-2.6v-.05q-1.5-2.9-.2-4.8l.05-.05q1-1.2 2.55-1.8l3.6-.8 4.6-.85.05-.05q3.05-.9 4.95-2.85l.05-.05q4.25-4 1-10.45-1.3-2.55-3.15-4.4z"/><path id="f" stroke="#3C190A" stroke-width="6" stroke-linejoin="round" stroke-linecap="round" fill="none" d="M-41.55 9.75q1.25-1.25 7.05-.95l.35-.85q2.55-7.8 7.6-12.85 5.25-5.25 12.1-7.95 6.6-2.65 14.2-2.65T14-12.85q6.8 2.7 12.05 7.95Q31.1.15 33.7 7.95l.25.9q6.25-.4 7.6.9 1.75 1.75 1.85 7.6.1 6-1.85 7.95-1.3 1.3-5.9 1.2Q34.4 32.8 28.3 37q-3.8 2.7-9.3 4.3-.95 1.95-5.4 3.4-5.7 1.95-13.85 1.95-8.05 0-13.8-1.95-4.45-1.45-5.45-3.4-5.45-1.6-9.3-4.3-6.05-4.2-7.35-10.5-4.15.05-5.4-1.2-1.9-1.95-1.85-7.95.1-5.85 1.85-7.6z"/><path id="l" stroke="#3C190A" stroke-width="1" stroke-linejoin="round" stroke-linecap="round" fill="none" d="M14.05-12.85Q7.4-15.5-.2-15.5t-14.25 2.65q-6.8 2.7-12.05 7.95-5.05 5.05-7.65 12.85-2.3 7-2.3 15 0 8.7 7.7 14.05 9.4 6.6 28.55 6.6T28.35 37q7.7-5.35 7.7-14.05 0-8-2.3-15Q31.15.15 26.1-4.9q-5.25-5.25-12.05-7.95z"/></defs><use xlink:href="#a" transform="matrix(-.38956 .17516 -.17516 -.38956 24.3 4.55)"/><use xlink:href="#b" transform="matrix(-.38956 .17516 -.17516 -.38956 24.3 4.55)"/><use xlink:href="#c" transform="matrix(-.38956 .17516 -.17516 -.38956 24.3 4.55)"/><g><g transform="matrix(-.42712 0 0 -.42712 19.8 21.2)"><use xlink:href="#d"/><use xlink:href="#e"/></g><use xlink:href="#f" transform="matrix(-.42712 0 0 -.42712 19.8 21.2)"/><use xlink:href="#g" transform="matrix(-.42712 0 0 -.42712 19.8 21.2)"/><use xlink:href="#h" transform="matrix(-.42712 0 0 -.42712 19.8 21.2)"/><use xlink:href="#i" transform="matrix(-.42712 0 0 -.42712 19.8 21.2)"/><use xlink:href="#j" transform="matrix(-.42712 0 0 -.42712 19.8 21.2)"/><g transform="matrix(-.42712 0 0 -.42712 19.8 21.2)"><use xlink:href="#k"/><use xlink:href="#l"/></g><use xlink:href="#m" transform="matrix(-.42712 0 0 -.42712 19.8 21.2)"/><use xlink:href="#n" transform="matrix(-.42712 0 0 -.42712 19.8 21.2)"/><use xlink:href="#o" transform="matrix(-.42712 0 0 -.42712 19.8 21.2)"/><use xlink:href="#p" transform="matrix(-.42712 0 0 -.42712 19.8 21.2)"/><use xlink:href="#q" transform="matrix(-.42712 0 0 -.42712 19.8 21.2)"/></g></svg>